<svg width="102" height="103" viewBox="0 0 102 103" fill="none" xmlns="http://www.w3.org/2000/svg">
<path d="M100.773 41.2578C102.108 48.9756 93.9124 46.9199 93.9124 46.9199C90.4823 37.2546 84.9941 38.1563 84.9941 38.1563C89.2908 41.2939 89.6157 43.9626 89.6157 43.9626C78.1701 35.8481 62.6083 42.3758 56.6869 45.4413C53.3651 40.7529 46.6494 30.2581 49.0324 25.4976C52.1736 19.2585 58.5644 22.8289 58.5644 22.8289C71.4904 22.6125 70.7683 17.9962 70.7683 17.9962C67.3382 20.665 57.2285 17.9962 57.2285 17.9962C66.0023 17.9962 69.7212 14.4259 69.7212 14.4259C63.186 16.0488 55.8925 9.08833 55.8925 9.08833C53.2207 -4.58009 40.8724 1.22629 40.8724 1.22629C48.5991 -0.108098 46.541 8.07853 46.541 8.07853C36.8646 11.5046 37.7672 16.9864 37.7672 16.9864C40.9085 12.6948 43.5803 12.3702 43.5803 12.3702C34.7343 24.8124 43.2554 42.1233 45.7828 46.6314C41.1612 49.8411 30.3294 56.9098 25.455 54.4574C19.2087 51.3198 22.7832 44.9364 22.7832 44.9364C22.6387 32.0253 18.0171 32.7466 18.0171 32.7466C20.689 36.1727 18.0171 46.2708 18.0171 46.2708C18.0171 37.5071 14.4426 33.7925 14.4426 33.7925C16.0674 40.3201 9.09892 47.6051 9.09892 47.6051C-4.58533 50.2739 1.22777 62.6079 1.22777 62.6079C-0.108164 54.8901 8.08794 56.9458 8.08794 56.9458C11.518 66.6111 17.0062 65.7095 17.0062 65.7095C12.7095 62.5719 12.3846 59.9031 12.3846 59.9031C24.4802 68.4864 41.1973 60.6965 46.2522 57.9556C49.6462 62.8243 55.9648 72.8502 53.6179 77.5025C50.4766 83.7417 44.0858 80.1713 44.0858 80.1713C31.1598 80.3156 31.8819 84.9318 31.8819 84.9318C35.312 82.263 45.4217 84.9318 45.4217 84.9318C36.6479 84.9318 32.929 88.5022 32.929 88.5022C39.4642 86.8793 46.7577 93.8397 46.7577 93.8397C49.4295 107.508 61.7779 101.702 61.7779 101.702C54.0511 103.036 56.1092 94.8495 56.1092 94.8495C65.7856 91.4234 64.883 85.9416 64.883 85.9416C61.7417 90.2333 59.0699 90.5579 59.0699 90.5579C67.7354 78.4042 59.7559 61.5621 57.0479 56.6212C61.9584 53.1951 71.8876 47.0642 76.4731 49.3723C82.7194 52.5099 79.1449 58.8933 79.1449 58.8933C79.2894 71.8044 83.9109 71.0831 83.9109 71.0831C81.2391 67.657 83.9109 57.5589 83.9109 57.5589C83.9109 66.3226 87.4855 70.0372 87.4855 70.0372C85.8607 63.5095 92.8292 56.2245 92.8292 56.2245C106.586 53.5918 100.773 41.2578 100.773 41.2578Z" fill="url(#paint0_linear_16_177)"/>
<defs>
<linearGradient id="paint0_linear_16_177" x1="50.9967" y1="0.00115967" x2="50.9967" y2="102.927" gradientUnits="userSpaceOnUse">
<stop stop-color="#C0B7E8"/>
<stop offset="1" stop-color="#8176AF"/>
</linearGradient>
</defs>
</svg>
